<svg width="1279" height="580" viewBox="0 0 1279 580" fill="none" xmlns="http://www.w3.org/2000/svg">
<circle cx="100" cy="100" r="100" fill="#00FFCC" fill-opacity="0.4"/>
<circle cx="350" cy="300" r="150" fill="#00FFCC" fill-opacity="0.4"/>
<path d="M198.916 122.163C197.988 122.761 197.721 123.999 198.319 124.927C198.918 125.856 200.156 126.123 201.084 125.524L198.916 122.163ZM200.5 123.523L199.425 121.836L199.425 121.836L200.5 123.523ZM285.559 175.61L288.711 152.732L267.322 161.44L285.559 175.61ZM239.945 116.906L239.454 118.845L239.945 116.906ZM250.918 121.999L252.129 120.407L252.129 120.407L250.918 121.999ZM201.084 125.524C201.248 125.418 201.412 125.313 201.575 125.209L199.425 121.836C199.255 121.944 199.086 122.053 198.916 122.163L201.084 125.524ZM201.575 125.209C218.401 114.483 232.092 112.258 243.944 117.718C255.982 123.263 266.741 136.986 276.944 159.752L280.594 158.116C270.303 135.154 259.036 120.266 245.617 114.084C232.012 107.817 216.815 110.75 199.425 121.836L201.575 125.209ZM201.393 125.312C208.744 121.641 214.274 119.064 219.96 117.864C225.57 116.681 231.451 116.821 239.454 118.845L240.435 114.967C231.976 112.827 225.465 112.615 219.134 113.951C212.878 115.27 206.916 118.083 199.606 121.734L201.393 125.312ZM249.707 123.591C256.689 128.902 263.059 136.999 275.412 156.372L278.785 154.221C266.457 134.889 259.75 126.205 252.129 120.407L249.707 123.591ZM239.454 118.845C243.197 119.791 246.729 121.325 249.707 123.591L252.129 120.407C248.633 117.748 244.58 116.015 240.435 114.967L239.454 118.845Z" fill="#767676"/>
<circle cx="728" cy="217" r="100" fill="#00FFCC" fill-opacity="0.4"/>
<circle cx="1079" cy="337" r="200" fill="#00FFCC" fill-opacity="0.4"/>
<circle cx="609" cy="480" r="100" fill="#00FFCC" fill-opacity="0.4"/>
<path d="M413.326 437.61C413.542 436.526 414.595 435.823 415.678 436.038C416.761 436.254 417.465 437.307 417.249 438.39L413.326 437.61ZM415.173 438.583L413.21 438.203L413.21 438.203L415.173 438.583ZM494.877 498.544L474.759 509.884L474.997 486.792L494.877 498.544ZM423.517 477.699L425.14 476.53L423.517 477.699ZM432.287 486.032L431.252 487.743L431.252 487.743L432.287 486.032ZM417.249 438.39C417.211 438.582 417.174 438.772 417.137 438.963L413.21 438.203C413.248 438.005 413.287 437.808 413.326 437.61L417.249 438.39ZM417.137 438.963C413.346 458.553 416.309 472.104 425.742 481.119C435.323 490.277 452.041 495.239 476.963 496.361L476.783 500.357C451.646 499.225 433.659 494.219 422.978 484.011C412.149 473.661 409.291 458.45 413.21 438.203L417.137 438.963ZM417.166 438.756C416.453 446.942 416.089 453.032 417.063 458.76C418.025 464.413 420.316 469.831 425.14 476.53L421.894 478.867C416.795 471.787 414.205 465.809 413.12 459.431C412.048 453.127 412.472 446.549 413.181 438.409L417.166 438.756ZM433.322 484.321C440.827 488.862 450.699 491.81 473.256 496.178L472.496 500.105C449.986 495.746 439.444 492.7 431.252 487.743L433.322 484.321ZM425.14 476.53C427.396 479.663 430.12 482.384 433.322 484.321L431.252 487.743C427.493 485.47 424.392 482.336 421.894 478.867L425.14 476.53Z" fill="#767676"/>
<path d="M670.883 408.159C669.78 408.094 668.939 407.148 669.003 406.045C669.068 404.943 670.014 404.101 671.117 404.166L670.883 408.159ZM671.593 406.195L671.487 408.192L671.487 408.192L671.593 406.195ZM720.018 319L734.019 337.366L711.113 340.308L720.018 319ZM709.189 392.549L707.808 391.102L709.189 392.549ZM716.237 382.716L718.074 383.506L718.074 383.506L716.237 382.716ZM671.117 404.166C671.312 404.177 671.506 404.188 671.699 404.198L671.487 408.192C671.286 408.182 671.085 408.171 670.883 408.159L671.117 404.166ZM671.699 404.198C691.625 405.258 704.639 400.459 712.271 389.875C720.023 379.124 722.638 361.883 720.32 337.044L724.303 336.672C726.641 361.726 724.157 380.231 715.516 392.214C706.754 404.365 692.081 409.288 671.487 408.192L671.699 404.198ZM671.491 404.198C679.696 403.777 685.779 403.3 691.318 401.547C696.785 399.817 701.836 396.802 707.808 391.102L710.57 393.996C704.258 400.02 698.694 403.409 692.525 405.361C686.429 407.29 679.855 407.774 671.695 408.193L671.491 404.198ZM714.399 381.926C717.864 373.868 719.426 363.684 720.649 340.74L724.644 340.953C723.423 363.849 721.856 374.71 718.074 383.506L714.399 381.926ZM707.808 391.102C710.6 388.437 712.921 385.364 714.399 381.926L718.074 383.506C716.339 387.542 713.662 391.044 710.57 393.996L707.808 391.102Z" fill="#767676"/>
<path d="M826.467 177.032C825.757 177.879 825.869 179.14 826.716 179.85C827.563 180.559 828.824 180.447 829.533 179.6L826.467 177.032ZM828.382 177.862L826.856 176.57L826.856 176.57L828.382 177.862ZM925.056 202.403L921.288 179.619L903.44 194.274L925.056 202.403ZM864.095 159.853L864.201 161.851L864.095 159.853ZM876.085 161.466L876.769 159.587L876.769 159.587L876.085 161.466ZM829.533 179.6C829.659 179.451 829.784 179.302 829.909 179.154L826.856 176.57C826.726 176.723 826.596 176.877 826.467 177.032L829.533 179.6ZM829.909 179.154C842.801 163.924 855.218 157.741 868.155 159.443C881.295 161.172 895.638 171.091 912.129 189.81L915.13 187.166C898.497 168.285 883.324 157.405 868.676 155.478C853.825 153.524 840.18 160.828 826.856 176.57L829.909 179.154ZM829.766 179.306C835.699 173.622 840.217 169.521 845.291 166.691C850.299 163.898 855.958 162.289 864.201 161.851L863.989 157.856C855.275 158.319 848.994 160.046 843.343 163.198C837.759 166.312 832.899 170.765 826.999 176.418L829.766 179.306ZM875.4 163.345C883.641 166.348 892.125 172.195 909.664 187.036L912.248 183.983C894.745 169.172 885.766 162.865 876.769 159.587L875.4 163.345ZM864.201 161.851C868.056 161.646 871.884 162.063 875.4 163.345L876.769 159.587C872.642 158.082 868.258 157.629 863.989 157.856L864.201 161.851Z" fill="#767676"/>
</svg>