<svg width="71" height="82" viewBox="0 0 71 82" fill="none" xmlns="http://www.w3.org/2000/svg">
<path d="M11.376 68.16C11.792 68.288 12.1493 68.5707 12.448 69.008C12.7467 69.4347 12.896 69.9253 12.896 70.48C12.896 71.664 12.512 72.5493 11.744 73.136C10.976 73.712 9.856 74 8.384 74H1.792C1.67467 74 1.57333 73.9573 1.488 73.872C1.40267 73.7867 1.36 73.6853 1.36 73.568V63.232C1.36 63.1147 1.40267 63.0133 1.488 62.928C1.57333 62.8427 1.67467 62.8 1.792 62.8H8.224C9.73867 62.8 10.8533 63.0773 11.568 63.632C12.2933 64.176 12.656 65.0027 12.656 66.112V66.16C12.656 66.672 12.5173 67.1093 12.24 67.472C11.9627 67.8347 11.6747 68.064 11.376 68.16ZM8.32 66.256C8.32 66.064 8.26133 65.8987 8.144 65.76C8.03733 65.6213 7.87733 65.552 7.664 65.552H5.52V67.008H7.664C7.87733 67.008 8.03733 66.9333 8.144 66.784C8.26133 66.624 8.32 66.448 8.32 66.256ZM7.84 71.248C8.08533 71.248 8.26667 71.168 8.384 71.008C8.512 70.8373 8.576 70.6507 8.576 70.448V70.432C8.576 70.2293 8.50667 70.0533 8.368 69.904C8.24 69.7547 8.064 69.68 7.84 69.68H5.52V71.248H7.84ZM18.9218 69.68C18.9218 70.1173 19.0658 70.4533 19.3538 70.688C19.6524 70.9227 20.0524 71.04 20.5538 71.04C21.0018 71.04 21.3324 70.9653 21.5458 70.816C21.7591 70.6667 21.9404 70.4427 22.0898 70.144C22.2284 69.8667 22.4151 69.728 22.6498 69.728H26.1058C26.2018 69.728 26.2818 69.7653 26.3458 69.84C26.4204 69.904 26.4578 69.984 26.4578 70.08C26.4578 70.7307 26.2391 71.3707 25.8018 72C25.3644 72.6187 24.6978 73.136 23.8018 73.552C22.9164 73.9573 21.8338 74.16 20.5538 74.16C19.4124 74.16 18.3938 73.9893 17.4978 73.648C16.6124 73.296 15.9084 72.7627 15.3858 72.048C14.8631 71.3227 14.6018 70.4213 14.6018 69.344V67.456C14.6018 66.3787 14.8631 65.4827 15.3858 64.768C15.9084 64.0427 16.6124 63.5093 17.4978 63.168C18.3938 62.816 19.4124 62.64 20.5538 62.64C21.8338 62.64 22.9164 62.848 23.8018 63.264C24.6978 63.6693 25.3644 64.1867 25.8018 64.816C26.2391 65.4347 26.4578 66.0693 26.4578 66.72C26.4578 66.816 26.4204 66.9013 26.3458 66.976C26.2818 67.04 26.2018 67.072 26.1058 67.072H22.6498C22.4151 67.072 22.2284 66.9333 22.0898 66.656C21.9404 66.3573 21.7591 66.1333 21.5458 65.984C21.3324 65.8347 21.0018 65.76 20.5538 65.76C20.0524 65.76 19.6524 65.8773 19.3538 66.112C19.0658 66.3467 18.9218 66.6827 18.9218 67.12V69.68ZM39.7475 67.248C39.8648 67.248 39.9662 67.2907 40.0515 67.376C40.1368 67.4613 40.1795 67.5627 40.1795 67.68V69.376C40.1795 70.9973 39.6248 72.2027 38.5155 72.992C37.4168 73.7707 35.9608 74.16 34.1475 74.16C32.3342 74.16 30.8728 73.7707 29.7635 72.992C28.6648 72.2027 28.1155 70.9867 28.1155 69.344V67.456C28.1155 66.368 28.3822 65.4667 28.9155 64.752C29.4488 64.0267 30.1688 63.4933 31.0755 63.152C31.9822 62.8107 33.0062 62.64 34.1475 62.64C35.5128 62.64 36.6382 62.864 37.5235 63.312C38.4088 63.76 39.0488 64.2667 39.4435 64.832C39.8488 65.3973 40.0515 65.856 40.0515 66.208C40.0515 66.304 40.0142 66.3893 39.9395 66.464C39.8755 66.528 39.7955 66.56 39.6995 66.56H36.0835C35.8702 66.56 35.7155 66.5013 35.6195 66.384C35.2888 65.968 34.7982 65.76 34.1475 65.76C33.6568 65.76 33.2462 65.872 32.9155 66.096C32.5955 66.32 32.4355 66.608 32.4355 66.96V69.68C32.4355 70.1067 32.5955 70.4427 32.9155 70.688C33.2355 70.9227 33.6462 71.04 34.1475 71.04C34.8088 71.04 35.2942 70.928 35.6035 70.704C35.9235 70.4693 36.0888 70.1973 36.0995 69.888H35.1075C34.9902 69.888 34.8888 69.8453 34.8035 69.76C34.7182 69.6747 34.6755 69.5733 34.6755 69.456V67.68C34.6755 67.5627 34.7182 67.4613 34.8035 67.376C34.8888 67.2907 34.9902 67.248 35.1075 67.248H39.7475ZM52.7493 70.72C52.8666 70.72 52.9679 70.7627 53.0533 70.848C53.1386 70.9333 53.1813 71.0347 53.1813 71.152V73.568C53.1813 73.6853 53.1386 73.7867 53.0533 73.872C52.9679 73.9573 52.8666 74 52.7493 74H43.0853C42.9679 74 42.8666 73.9573 42.7812 73.872C42.6959 73.7867 42.6533 73.6853 42.6533 73.568V71.152C42.6533 71.0347 42.6959 70.9333 42.7812 70.848C42.8666 70.7627 42.9679 70.72 43.0853 70.72H46.0453V66.88L44.4293 67.952C44.3439 68.0053 44.2639 68.032 44.1893 68.032C44.0506 68.032 43.9279 67.9627 43.8213 67.824L42.5253 65.808C42.4933 65.744 42.4773 65.6693 42.4773 65.584C42.4773 65.4133 42.5413 65.28 42.6693 65.184L46.2213 62.864C46.2959 62.8213 46.3813 62.8 46.4773 62.8H49.7733C49.8906 62.8 49.9919 62.8427 50.0773 62.928C50.1626 63.0133 50.2053 63.1147 50.2053 63.232V70.72H52.7493ZM66.519 68.96C66.647 68.96 66.7537 69.0027 66.839 69.088C66.9243 69.1733 66.967 69.2747 66.967 69.392V71.776C66.967 71.8933 66.9243 71.9947 66.839 72.08C66.7537 72.1653 66.6523 72.208 66.535 72.208H65.127V73.568C65.127 73.6853 65.0843 73.7867 64.999 73.872C64.9137 73.9573 64.8123 74 64.695 74H61.479C61.3617 74 61.2603 73.9573 61.175 73.872C61.0897 73.7867 61.047 73.6853 61.047 73.568V72.208H55.863C55.7457 72.208 55.6443 72.1653 55.559 72.08C55.4737 71.9947 55.431 71.8933 55.431 71.776V69.408C55.431 69.2267 55.4897 69.0613 55.607 68.912L60.455 63.072C60.6043 62.8907 60.8017 62.8 61.047 62.8H64.695C64.8123 62.8 64.9137 62.8427 64.999 62.928C65.0843 63.0133 65.127 63.1147 65.127 63.232V68.96H66.519ZM61.159 69.136V66.88L59.319 69.136H61.159Z" fill="#00FFCC"/>
<path fill-rule="evenodd" clip-rule="evenodd" d="M21.6189 13.2176C23.7615 12.1085 25.2445 9.71346 25.2445 6.93763C25.2445 3.10608 22.4189 0 18.9334 0C15.4478 0 12.6223 3.10608 12.6223 6.93763C12.6223 10.7692 15.4478 13.8753 18.9334 13.8753C19.5457 13.8753 20.1377 13.7794 20.6976 13.6006L27.1243 29.7484C25.9638 31.0065 25.2445 32.755 25.2445 34.6883C25.2445 38.5198 28.0701 41.6259 31.5556 41.6259C34.2547 41.6259 36.558 39.7634 37.46 37.1437L47.3489 38.3515C47.3386 38.5743 47.3334 38.7986 47.3334 39.0242C47.3334 39.661 47.375 40.2872 47.4554 40.8995L12.4825 46.5532C12.574 46.0829 12.6222 45.595 12.6222 45.0947C12.6222 41.2631 9.79664 38.157 6.31111 38.157C2.82558 38.157 0 41.2631 0 45.0947C0 48.9262 2.82558 52.0323 6.31111 52.0323C8.98872 52.0323 11.2769 50.1993 12.1938 47.6125L47.6205 41.8854C48.8064 47.6931 53.5256 52.0322 59.1667 52.0322C65.7021 52.0322 71 46.2083 71 39.0242C71 31.84 65.7021 26.0161 59.1667 26.0161C53.146 26.0161 48.1756 30.9588 47.43 37.3542L37.7227 36.1686C37.817 35.6916 37.8667 35.1963 37.8667 34.6883C37.8667 30.8567 35.0411 27.7506 31.5556 27.7506C30.1975 27.7506 28.9395 28.2222 27.9099 29.0245L21.6189 13.2176Z" fill="black"/>
</svg>
