<svg width="55" height="44" viewBox="0 0 55 44" fill="none" xmlns="http://www.w3.org/2000/svg">
<path d="M8.532 36.62C8.844 36.716 9.112 36.928 9.336 37.256C9.56 37.576 9.672 37.944 9.672 38.36C9.672 39.248 9.384 39.912 8.808 40.352C8.232 40.784 7.392 41 6.288 41H1.344C1.256 41 1.18 40.968 1.116 40.904C1.052 40.84 1.02 40.764 1.02 40.676V32.924C1.02 32.836 1.052 32.76 1.116 32.696C1.18 32.632 1.256 32.6 1.344 32.6H6.168C7.304 32.6 8.14 32.808 8.676 33.224C9.22 33.632 9.492 34.252 9.492 35.084V35.12C9.492 35.504 9.388 35.832 9.18 36.104C8.972 36.376 8.756 36.548 8.532 36.62ZM6.24 35.192C6.24 35.048 6.196 34.924 6.108 34.82C6.028 34.716 5.908 34.664 5.748 34.664H4.14V35.756H5.748C5.908 35.756 6.028 35.7 6.108 35.588C6.196 35.468 6.24 35.336 6.24 35.192ZM5.88 38.936C6.064 38.936 6.2 38.876 6.288 38.756C6.384 38.628 6.432 38.488 6.432 38.336V38.324C6.432 38.172 6.38 38.04 6.276 37.928C6.18 37.816 6.048 37.76 5.88 37.76H4.14V38.936H5.88ZM14.1913 37.76C14.1913 38.088 14.2993 38.34 14.5153 38.516C14.7393 38.692 15.0393 38.78 15.4153 38.78C15.7513 38.78 15.9993 38.724 16.1593 38.612C16.3193 38.5 16.4553 38.332 16.5673 38.108C16.6713 37.9 16.8113 37.796 16.9873 37.796H19.5793C19.6513 37.796 19.7113 37.824 19.7593 37.88C19.8153 37.928 19.8433 37.988 19.8433 38.06C19.8433 38.548 19.6793 39.028 19.3513 39.5C19.0233 39.964 18.5233 40.352 17.8513 40.664C17.1873 40.968 16.3753 41.12 15.4153 41.12C14.5593 41.12 13.7953 40.992 13.1233 40.736C12.4593 40.472 11.9313 40.072 11.5393 39.536C11.1473 38.992 10.9513 38.316 10.9513 37.508V36.092C10.9513 35.284 11.1473 34.612 11.5393 34.076C11.9313 33.532 12.4593 33.132 13.1233 32.876C13.7953 32.612 14.5593 32.48 15.4153 32.48C16.3753 32.48 17.1873 32.636 17.8513 32.948C18.5233 33.252 19.0233 33.64 19.3513 34.112C19.6793 34.576 19.8433 35.052 19.8433 35.54C19.8433 35.612 19.8153 35.676 19.7593 35.732C19.7113 35.78 19.6513 35.804 19.5793 35.804H16.9873C16.8113 35.804 16.6713 35.7 16.5673 35.492C16.4553 35.268 16.3193 35.1 16.1593 34.988C15.9993 34.876 15.7513 34.82 15.4153 34.82C15.0393 34.82 14.7393 34.908 14.5153 35.084C14.2993 35.26 14.1913 35.512 14.1913 35.84V37.76ZM29.8106 35.936C29.8986 35.936 29.9746 35.968 30.0386 36.032C30.1026 36.096 30.1346 36.172 30.1346 36.26V37.532C30.1346 38.748 29.7186 39.652 28.8866 40.244C28.0626 40.828 26.9706 41.12 25.6106 41.12C24.2506 41.12 23.1546 40.828 22.3226 40.244C21.4986 39.652 21.0866 38.74 21.0866 37.508V36.092C21.0866 35.276 21.2866 34.6 21.6866 34.064C22.0866 33.52 22.6266 33.12 23.3066 32.864C23.9866 32.608 24.7546 32.48 25.6106 32.48C26.6346 32.48 27.4786 32.648 28.1426 32.984C28.8066 33.32 29.2866 33.7 29.5826 34.124C29.8866 34.548 30.0386 34.892 30.0386 35.156C30.0386 35.228 30.0106 35.292 29.9546 35.348C29.9066 35.396 29.8466 35.42 29.7746 35.42H27.0626C26.9026 35.42 26.7866 35.376 26.7146 35.288C26.4666 34.976 26.0986 34.82 25.6106 34.82C25.2426 34.82 24.9346 34.904 24.6866 35.072C24.4466 35.24 24.3266 35.456 24.3266 35.72V37.76C24.3266 38.08 24.4466 38.332 24.6866 38.516C24.9266 38.692 25.2346 38.78 25.6106 38.78C26.1066 38.78 26.4706 38.696 26.7026 38.528C26.9426 38.352 27.0666 38.148 27.0746 37.916H26.3306C26.2426 37.916 26.1666 37.884 26.1026 37.82C26.0386 37.756 26.0066 37.68 26.0066 37.592V36.26C26.0066 36.172 26.0386 36.096 26.1026 36.032C26.1666 35.968 26.2426 35.936 26.3306 35.936H29.8106ZM39.5619 38.54C39.6499 38.54 39.7259 38.572 39.7899 38.636C39.8539 38.7 39.8859 38.776 39.8859 38.864V40.676C39.8859 40.764 39.8539 40.84 39.7899 40.904C39.7259 40.968 39.6499 41 39.5619 41H32.3139C32.2259 41 32.1499 40.968 32.0859 40.904C32.0219 40.84 31.9899 40.764 31.9899 40.676V38.864C31.9899 38.776 32.0219 38.7 32.0859 38.636C32.1499 38.572 32.2259 38.54 32.3139 38.54H34.5339V35.66L33.3219 36.464C33.2579 36.504 33.1979 36.524 33.1419 36.524C33.0379 36.524 32.9459 36.472 32.8659 36.368L31.8939 34.856C31.8699 34.808 31.8579 34.752 31.8579 34.688C31.8579 34.56 31.9059 34.46 32.0019 34.388L34.6659 32.648C34.7219 32.616 34.7859 32.6 34.8579 32.6H37.3299C37.4179 32.6 37.4939 32.632 37.5579 32.696C37.6219 32.76 37.6539 32.836 37.6539 32.924V38.54H39.5619ZM49.8893 37.22C49.9853 37.22 50.0653 37.252 50.1293 37.316C50.1933 37.38 50.2253 37.456 50.2253 37.544V39.332C50.2253 39.42 50.1933 39.496 50.1293 39.56C50.0653 39.624 49.9893 39.656 49.9013 39.656H48.8453V40.676C48.8453 40.764 48.8133 40.84 48.7493 40.904C48.6853 40.968 48.6093 41 48.5213 41H46.1093C46.0213 41 45.9453 40.968 45.8813 40.904C45.8173 40.84 45.7853 40.764 45.7853 40.676V39.656H41.8973C41.8093 39.656 41.7333 39.624 41.6693 39.56C41.6053 39.496 41.5732 39.42 41.5732 39.332V37.556C41.5732 37.42 41.6173 37.296 41.7053 37.184L45.3413 32.804C45.4533 32.668 45.6013 32.6 45.7853 32.6H48.5213C48.6093 32.6 48.6853 32.632 48.7493 32.696C48.8133 32.76 48.8453 32.836 48.8453 32.924V37.22H49.8893ZM45.8693 37.352V35.66L44.4893 37.352H45.8693Z" fill="#00FFCC"/>
<path fill-rule="evenodd" clip-rule="evenodd" d="M18.0357 7.44395C19.2116 6.74739 20 5.46576 20 4C20 1.79086 18.2091 0 16 0C13.7909 0 12 1.79086 12 4C12 6.20914 13.7909 8 16 8C16.3881 8 16.7633 7.94472 17.1182 7.84161L21.1914 17.1518C20.4559 17.8772 20 18.8854 20 20C20 22.2091 21.7909 24 24 24C25.7107 24 27.1705 22.9262 27.7422 21.4158L34.0099 22.1122C34.0033 22.2406 34 22.3699 34 22.5C34 22.7229 34.0097 22.9435 34.0288 23.1615L11.9799 26.404C11.9932 26.2711 12 26.1364 12 26C12 23.7909 10.2091 22 8 22C5.79086 22 4 23.7909 4 26C4 28.2091 5.79086 30 8 30C9.69707 30 11.1473 28.9431 11.7284 27.4517L34.182 24.1497C34.9336 27.4982 37.9246 30 41.5 30C45.6421 30 49 26.6421 49 22.5C49 18.3579 45.6421 15 41.5 15C37.8296 15 34.775 17.6366 34.1269 21.1191L27.9765 20.4357C27.992 20.2926 28 20.1472 28 20C28 17.7909 26.2091 16 24 16C23.2758 16 22.5965 16.1925 22.0105 16.5291L18.0357 7.44395Z" fill="#4D4D4D"/>
</svg>